<svg xmlns="http://www.w3.org/2000/svg" width="1024" height="1024" viewBox="0 0 1024 1024" role="img" aria-labelledby="title desc">
  <title id="title">Lite TRPG Sim Launcher Icon Variant A</title>
  <desc id="desc">Minimal dark sigil with d20 and crossed quill-blade motif.</desc>

  <defs>
    <linearGradient id="bg" x1="0" y1="0" x2="1" y2="1">
      <stop offset="0%" stop-color="#0c1213"/>
      <stop offset="100%" stop-color="#121b1c"/>
    </linearGradient>
    <linearGradient id="gold" x1="0" y1="0" x2="1" y2="1">
      <stop offset="0%" stop-color="#e7d3ab"/>
      <stop offset="50%" stop-color="#b48a58"/>
      <stop offset="100%" stop-color="#f0e1c2"/>
    </linearGradient>
    <linearGradient id="steel" x1="0" y1="0" x2="0" y2="1">
      <stop offset="0%" stop-color="#dfe7ec"/>
      <stop offset="100%" stop-color="#6f7a83"/>
    </linearGradient>
  </defs>

  <rect width="1024" height="1024" rx="190" fill="url(#bg)"/>
  <circle cx="512" cy="512" r="366" fill="none" stroke="#2b3a3d" stroke-width="8"/>
  <circle cx="512" cy="512" r="334" fill="none" stroke="url(#gold)" stroke-width="18" opacity="0.88"/>

  <g opacity="0.92">
    <path d="M300 770L500 560L524 584L324 794Z" fill="url(#steel)"/>
    <path d="M324 794L286 824L300 770Z" fill="#8f6f4d"/>

    <path d="M724 768L522 582L544 556L746 742Z" fill="#cdd5db"/>
    <path d="M746 742L782 808L724 768Z" fill="#9a7752"/>
  </g>

  <g>
    <polygon points="512,268 700,404 630,646 394,646 324,404" fill="#11191a" stroke="url(#gold)" stroke-width="14"/>
    <polygon points="512,318 654,421 600,611 424,611 370,421" fill="#1b2527" stroke="#3a4b4f" stroke-width="6"/>
    <path d="M512 318V611M370 421H654M424 611L512 421L600 611" stroke="#8fa1a5" stroke-width="4" opacity="0.55"/>
    <text x="512" y="515" text-anchor="middle" fill="#f4e9d1" font-size="168" font-family="Georgia, 'Times New Roman', serif" font-weight="700">20</text>
  </g>

  <text x="512" y="918" text-anchor="middle" fill="#ccb28b" font-size="56" letter-spacing="5" font-family="Palatino, Georgia, serif">LITE TRPG</text>
</svg>
